<?xml version="1.0" encoding="us-ascii" standalone="no"?><svg xmlns="http://www.w3.org/2000/svg" xmlns:xlink="http://www.w3.org/1999/xlink" contentStyleType="text/css" height="1243px" preserveAspectRatio="none" style="width:250px;height:1243px;background:#FFFFFF;" version="1.1" viewBox="0 0 250 1243" width="250px" zoomAndPan="magnify"><defs/><g><text fill="#000000" font-family="sans-serif" font-size="14" font-weight="bold" lengthAdjust="spacing" textLength="180" x="33.5" y="32.9951">CNN - Training Pipeline</text><ellipse cx="125" cy="57.2969" fill="#222222" rx="10" ry="10" style="stroke:#222222;stroke-width:1.0;"/><rect fill="#F1F1F1" height="33.9688" rx="12.5" ry="12.5" style="stroke:#181818;stroke-width:0.5;" width="228" x="11" y="87.2969"/><text fill="#000000" font-family="sans-serif" font-size="12" lengthAdjust="spacing" textLength="208" x="21" y="108.4355">Data Acquisition and Preparation</text><rect fill="#F1F1F1" height="61.9063" rx="12.5" ry="12.5" style="stroke:#181818;stroke-width:0.5;" width="144" x="53" y="141.2656"/><text fill="#000000" font-family="sans-serif" font-size="12" lengthAdjust="spacing" textLength="109" x="63" y="162.4043">Split Dataset into</text><text fill="#000000" font-family="sans-serif" font-size="12" lengthAdjust="spacing" textLength="124" x="63" y="176.373">Training, Validation,</text><text fill="#000000" font-family="sans-serif" font-size="12" lengthAdjust="spacing" textLength="87" x="63" y="190.3418">and Test Sets</text><rect fill="#F1F1F1" height="33.9688" rx="12.5" ry="12.5" style="stroke:#181818;stroke-width:0.5;" width="144" x="53" y="223.1719"/><text fill="#000000" font-family="sans-serif" font-size="12" lengthAdjust="spacing" textLength="124" x="63" y="244.3105">Data Preprocessing</text><rect fill="#F1F1F1" height="47.9375" rx="12.5" ry="12.5" style="stroke:#181818;stroke-width:0.5;" width="146" x="52" y="277.1406"/><text fill="#000000" font-family="sans-serif" font-size="12" lengthAdjust="spacing" textLength="126" x="62" y="298.2793">Scale and Normalize</text><text fill="#000000" font-family="sans-serif" font-size="12" lengthAdjust="spacing" textLength="72" x="62" y="312.248">Image Data</text><rect fill="#F1F1F1" height="33.9688" rx="12.5" ry="12.5" style="stroke:#181818;stroke-width:0.5;" width="182" x="34" y="345.0781"/><text fill="#000000" font-family="sans-serif" font-size="12" lengthAdjust="spacing" textLength="162" x="44" y="366.2168">Define Model Architecture</text><rect fill="#F1F1F1" height="61.9063" rx="12.5" ry="12.5" style="stroke:#181818;stroke-width:0.5;" width="191" x="29.5" y="399.0469"/><text fill="#000000" font-family="sans-serif" font-size="12" lengthAdjust="spacing" textLength="157" x="39.5" y="420.1855">Set Convolutional Layers,</text><text fill="#000000" font-family="sans-serif" font-size="12" lengthAdjust="spacing" textLength="94" x="39.5" y="434.1543">Pooling Layers,</text><text fill="#000000" font-family="sans-serif" font-size="12" lengthAdjust="spacing" textLength="171" x="39.5" y="448.123">and Fully Connected Layers</text><rect fill="#F1F1F1" height="33.9688" rx="12.5" ry="12.5" style="stroke:#181818;stroke-width:0.5;" width="110" x="70" y="480.9531"/><text fill="#000000" font-family="sans-serif" font-size="12" lengthAdjust="spacing" textLength="90" x="80" y="502.0918">Compile Model</text><rect fill="#F1F1F1" height="75.875" rx="12.5" ry="12.5" style="stroke:#181818;stroke-width:0.5;" width="198" x="26" y="534.9219"/><text fill="#000000" font-family="sans-serif" font-size="12" lengthAdjust="spacing" textLength="137" x="36" y="556.0605">Choose Loss Function</text><text fill="#000000" font-family="sans-serif" font-size="12" lengthAdjust="spacing" textLength="165" x="40" y="570.0293">(e.g., Cross-Entropy Loss);</text><text fill="#000000" font-family="sans-serif" font-size="12" lengthAdjust="spacing" textLength="127" x="36" y="583.998">Choose Optimization</text><text fill="#000000" font-family="sans-serif" font-size="12" lengthAdjust="spacing" textLength="174" x="40" y="597.9668">Algorithm (e.g., Adam, SGD)</text><rect fill="#F1F1F1" height="47.9375" rx="12.5" ry="12.5" style="stroke:#181818;stroke-width:0.5;" width="122" x="64" y="630.7969"/><text fill="#000000" font-family="sans-serif" font-size="12" lengthAdjust="spacing" textLength="70" x="74" y="651.9355">Set Metrics</text><text fill="#000000" font-family="sans-serif" font-size="12" lengthAdjust="spacing" textLength="98" x="78" y="665.9043">(e.g., Accuracy)</text><rect fill="#F1F1F1" height="33.9688" rx="12.5" ry="12.5" style="stroke:#181818;stroke-width:0.5;" width="117" x="66.5" y="698.7344"/><text fill="#000000" font-family="sans-serif" font-size="12" lengthAdjust="spacing" textLength="97" x="76.5" y="719.873">Train the Model</text><rect fill="#F1F1F1" height="47.9375" rx="12.5" ry="12.5" style="stroke:#181818;stroke-width:0.5;" width="125" x="62.5" y="808.4136"/><text fill="#000000" font-family="sans-serif" font-size="12" lengthAdjust="spacing" textLength="92" x="72.5" y="829.5522">Perform Epoch</text><text fill="#000000" font-family="sans-serif" font-size="12" lengthAdjust="spacing" textLength="101" x="76.5" y="843.521">(Model Training)</text><polygon fill="#F1F1F1" points="85.5,752.7031,164.5,752.7031,176.5,764.7031,164.5,776.7031,85.5,776.7031,73.5,764.7031,85.5,752.7031" style="stroke:#181818;stroke-width:0.5;"/><text fill="#000000" font-family="sans-serif" font-size="11" lengthAdjust="spacing" textLength="20" x="129" y="786.9136">yes</text><text fill="#000000" font-family="sans-serif" font-size="11" lengthAdjust="spacing" textLength="79" x="85.5" y="768.5112">More Epochs?</text><text fill="#000000" font-family="sans-serif" font-size="11" lengthAdjust="spacing" textLength="14" x="59.5" y="762.1089">no</text><rect fill="#F1F1F1" height="33.9688" rx="12.5" ry="12.5" style="stroke:#181818;stroke-width:0.5;" width="123" x="63.5" y="898.3511"/><text fill="#000000" font-family="sans-serif" font-size="12" lengthAdjust="spacing" textLength="103" x="73.5" y="919.4897">Model Validation</text><rect fill="#F1F1F1" height="33.9688" rx="12.5" ry="12.5" style="stroke:#181818;stroke-width:0.5;" width="208" x="21" y="952.3198"/><text fill="#000000" font-family="sans-serif" font-size="12" lengthAdjust="spacing" textLength="188" x="31" y="973.4585">Test Model on Validation Data</text><rect fill="#F1F1F1" height="33.9688" rx="12.5" ry="12.5" style="stroke:#181818;stroke-width:0.5;" width="126" x="62" y="1006.2886"/><text fill="#000000" font-family="sans-serif" font-size="12" lengthAdjust="spacing" textLength="106" x="72" y="1027.4272">Model Evaluation</text><rect fill="#F1F1F1" height="33.9688" rx="12.5" ry="12.5" style="stroke:#181818;stroke-width:0.5;" width="200" x="25" y="1060.2573"/><text fill="#000000" font-family="sans-serif" font-size="12" lengthAdjust="spacing" textLength="180" x="35" y="1081.396">Evaluate Model on Test Data</text><rect fill="#F1F1F1" height="75.875" rx="12.5" ry="12.5" style="stroke:#181818;stroke-width:0.5;" width="202" x="24" y="1114.2261"/><text fill="#000000" font-family="sans-serif" font-size="12" lengthAdjust="spacing" textLength="182" x="34" y="1135.3647">Fine-tuning and Optimization;</text><text fill="#000000" font-family="sans-serif" font-size="12" lengthAdjust="spacing" textLength="115" x="34" y="1149.3335">Make Adjustments</text><text fill="#000000" font-family="sans-serif" font-size="12" lengthAdjust="spacing" textLength="86" x="38" y="1163.3022">(Architecture,</text><text fill="#000000" font-family="sans-serif" font-size="12" lengthAdjust="spacing" textLength="114" x="34" y="1177.271">Hyperparameters)</text><ellipse cx="125" cy="1221.1011" fill="none" rx="11" ry="11" style="stroke:#222222;stroke-width:1.0;"/><ellipse cx="125" cy="1221.1011" fill="#222222" rx="6" ry="6" style="stroke:#222222;stroke-width:1.0;"/><line style="stroke:#181818;stroke-width:1.0;" x1="125" x2="125" y1="67.2969" y2="87.2969"/><polygon fill="#181818" points="121,77.2969,125,87.2969,129,77.2969,125,81.2969" style="stroke:#181818;stroke-width:1.0;"/><line style="stroke:#181818;stroke-width:1.0;" x1="125" x2="125" y1="121.2656" y2="141.2656"/><polygon fill="#181818" points="121,131.2656,125,141.2656,129,131.2656,125,135.2656" style="stroke:#181818;stroke-width:1.0;"/><line style="stroke:#181818;stroke-width:1.0;" x1="125" x2="125" y1="203.1719" y2="223.1719"/><polygon fill="#181818" points="121,213.1719,125,223.1719,129,213.1719,125,217.1719" style="stroke:#181818;stroke-width:1.0;"/><line style="stroke:#181818;stroke-width:1.0;" x1="125" x2="125" y1="257.1406" y2="277.1406"/><polygon fill="#181818" points="121,267.1406,125,277.1406,129,267.1406,125,271.1406" style="stroke:#181818;stroke-width:1.0;"/><line style="stroke:#181818;stroke-width:1.0;" x1="125" x2="125" y1="325.0781" y2="345.0781"/><polygon fill="#181818" points="121,335.0781,125,345.0781,129,335.0781,125,339.0781" style="stroke:#181818;stroke-width:1.0;"/><line style="stroke:#181818;stroke-width:1.0;" x1="125" x2="125" y1="379.0469" y2="399.0469"/><polygon fill="#181818" points="121,389.0469,125,399.0469,129,389.0469,125,393.0469" style="stroke:#181818;stroke-width:1.0;"/><line style="stroke:#181818;stroke-width:1.0;" x1="125" x2="125" y1="460.9531" y2="480.9531"/><polygon fill="#181818" points="121,470.9531,125,480.9531,129,470.9531,125,474.9531" style="stroke:#181818;stroke-width:1.0;"/><line style="stroke:#181818;stroke-width:1.0;" x1="125" x2="125" y1="514.9219" y2="534.9219"/><polygon fill="#181818" points="121,524.9219,125,534.9219,129,524.9219,125,528.9219" style="stroke:#181818;stroke-width:1.0;"/><line style="stroke:#181818;stroke-width:1.0;" x1="125" x2="125" y1="610.7969" y2="630.7969"/><polygon fill="#181818" points="121,620.7969,125,630.7969,129,620.7969,125,624.7969" style="stroke:#181818;stroke-width:1.0;"/><line style="stroke:#181818;stroke-width:1.0;" x1="125" x2="125" y1="678.7344" y2="698.7344"/><polygon fill="#181818" points="121,688.7344,125,698.7344,129,688.7344,125,692.7344" style="stroke:#181818;stroke-width:1.0;"/><line style="stroke:#181818;stroke-width:1.0;" x1="125" x2="125" y1="776.7031" y2="808.4136"/><polygon fill="#181818" points="121,798.4136,125,808.4136,129,798.4136,125,802.4136" style="stroke:#181818;stroke-width:1.0;"/><line style="stroke:#181818;stroke-width:1.0;" x1="125" x2="125" y1="856.3511" y2="866.3511"/><line style="stroke:#181818;stroke-width:1.0;" x1="125" x2="199.5" y1="866.3511" y2="866.3511"/><polygon fill="#181818" points="195.5,823.98,199.5,813.98,203.5,823.98,199.5,819.98" style="stroke:#181818;stroke-width:1.0;"/><line style="stroke:#181818;stroke-width:1.0;" x1="199.5" x2="199.5" y1="764.7031" y2="866.3511"/><line style="stroke:#181818;stroke-width:1.0;" x1="199.5" x2="176.5" y1="764.7031" y2="764.7031"/><polygon fill="#181818" points="186.5,760.7031,176.5,764.7031,186.5,768.7031,182.5,764.7031" style="stroke:#181818;stroke-width:1.0;"/><line style="stroke:#181818;stroke-width:1.0;" x1="73.5" x2="50.5" y1="764.7031" y2="764.7031"/><polygon fill="#181818" points="46.5,809.98,50.5,819.98,54.5,809.98,50.5,813.98" style="stroke:#181818;stroke-width:1.0;"/><line style="stroke:#181818;stroke-width:1.0;" x1="50.5" x2="50.5" y1="764.7031" y2="878.3511"/><line style="stroke:#181818;stroke-width:1.0;" x1="50.5" x2="125" y1="878.3511" y2="878.3511"/><line style="stroke:#181818;stroke-width:1.0;" x1="125" x2="125" y1="878.3511" y2="898.3511"/><polygon fill="#181818" points="121,888.3511,125,898.3511,129,888.3511,125,892.3511" style="stroke:#181818;stroke-width:1.0;"/><line style="stroke:#181818;stroke-width:1.0;" x1="125" x2="125" y1="732.7031" y2="752.7031"/><polygon fill="#181818" points="121,742.7031,125,752.7031,129,742.7031,125,746.7031" style="stroke:#181818;stroke-width:1.0;"/><line style="stroke:#181818;stroke-width:1.0;" x1="125" x2="125" y1="932.3198" y2="952.3198"/><polygon fill="#181818" points="121,942.3198,125,952.3198,129,942.3198,125,946.3198" style="stroke:#181818;stroke-width:1.0;"/><line style="stroke:#181818;stroke-width:1.0;" x1="125" x2="125" y1="986.2886" y2="1006.2886"/><polygon fill="#181818" points="121,996.2886,125,1006.2886,129,996.2886,125,1000.2886" style="stroke:#181818;stroke-width:1.0;"/><line style="stroke:#181818;stroke-width:1.0;" x1="125" x2="125" y1="1040.2573" y2="1060.2573"/><polygon fill="#181818" points="121,1050.2573,125,1060.2573,129,1050.2573,125,1054.2573" style="stroke:#181818;stroke-width:1.0;"/><line style="stroke:#181818;stroke-width:1.0;" x1="125" x2="125" y1="1094.2261" y2="1114.2261"/><polygon fill="#181818" points="121,1104.2261,125,1114.2261,129,1104.2261,125,1108.2261" style="stroke:#181818;stroke-width:1.0;"/><line style="stroke:#181818;stroke-width:1.0;" x1="125" x2="125" y1="1190.1011" y2="1210.1011"/><polygon fill="#181818" points="121,1200.1011,125,1210.1011,129,1200.1011,125,1204.1011" style="stroke:#181818;stroke-width:1.0;"/><!--SRC=[JLB1Rjim3BtxAtYCWQGVa1m68qsx0KqM84LFlWWo4skJHK-YExXVNzAMc-f6aU-HV8_is2FiJoVOm6iqBhXmWxFhqRk0HP7OH2wsZuODLFRVu99ZHm5CQE0SiJVHQBmhjfVUEmOjJCZW0bCT5i8rl1dlcgbqNGS5ls9Yk22dNMPNjaWMKnA0ybaZWsdfYM8dy0-imw_Et71geZ2yoenmf0OzLD6sZj7o457HCiEUmZlvGPiQ3ozcn9Ya-vd8wv9V7zhZQV1-L4GG2cnoKeZsrFNEvouQjqG9uOLI4b2mobu7ME73xM4D-oZ_cqFWIFqu5PMxEcJCxvvTvpvCXbJ-Hj5nsotWgZ7T6YxFZsLUu8WSdKrt-ihQ8HexQi6aBN3xDTh_LkTS7IaY77goRVfHWakm6Z6L1SZRdZ5UHSmvhRIpTejDGekXoJo1oc8xv-_cQLyrRlwNExYd5bVcrE7T-661v03li8aa0vx4n0qFq-6f5Tzb4l6EvY-AD7-6n1q6djJuRhOO-7FiCUefTiZYcgoHcFfF]--></g></svg>